<svg width="320" height="320" viewBox="0 0 320 320" fill="none" xmlns="http://www.w3.org/2000/svg">
  <rect width="320" height="320" fill="transparent"/>
  <circle cx="22" cy="34" r="0.9" fill="white" fill-opacity="0.75"/>
  <circle cx="58" cy="76" r="1.1" fill="#E8F2FF" fill-opacity="0.68"/>
  <circle cx="116" cy="28" r="0.8" fill="white" fill-opacity="0.58"/>
  <circle cx="148" cy="102" r="1.2" fill="white" fill-opacity="0.72"/>
  <circle cx="198" cy="44" r="0.9" fill="#D7E6FF" fill-opacity="0.66"/>
  <circle cx="234" cy="88" r="0.7" fill="white" fill-opacity="0.52"/>
  <circle cx="278" cy="36" r="1" fill="white" fill-opacity="0.7"/>
  <circle cx="38" cy="148" r="0.8" fill="#F9FBFF" fill-opacity="0.63"/>
  <circle cx="90" cy="182" r="1.3" fill="white" fill-opacity="0.78"/>
  <circle cx="132" cy="154" r="0.7" fill="white" fill-opacity="0.54"/>
  <circle cx="176" cy="204" r="1" fill="#DDE8FF" fill-opacity="0.64"/>
  <circle cx="224" cy="168" r="1.15" fill="white" fill-opacity="0.74"/>
  <circle cx="266" cy="198" r="0.8" fill="white" fill-opacity="0.58"/>
  <circle cx="300" cy="144" r="0.95" fill="#EEF5FF" fill-opacity="0.67"/>
  <circle cx="30" cy="246" r="1.05" fill="white" fill-opacity="0.73"/>
  <circle cx="82" cy="286" r="0.75" fill="white" fill-opacity="0.55"/>
  <circle cx="124" cy="238" r="1.2" fill="#E9F1FF" fill-opacity="0.7"/>
  <circle cx="174" cy="278" r="0.9" fill="white" fill-opacity="0.61"/>
  <circle cx="214" cy="252" r="0.7" fill="white" fill-opacity="0.49"/>
  <circle cx="262" cy="292" r="1.1" fill="white" fill-opacity="0.76"/>
  <circle cx="292" cy="238" r="0.85" fill="#D8E7FF" fill-opacity="0.62"/>
  <g fill="white" fill-opacity="0.28">
    <circle cx="68" cy="40" r="0.45"/>
    <circle cx="168" cy="18" r="0.45"/>
    <circle cx="244" cy="28" r="0.45"/>
    <circle cx="18" cy="106" r="0.45"/>
    <circle cx="188" cy="128" r="0.45"/>
    <circle cx="286" cy="108" r="0.45"/>
    <circle cx="144" cy="198" r="0.45"/>
    <circle cx="54" cy="214" r="0.45"/>
    <circle cx="246" cy="214" r="0.45"/>
    <circle cx="16" cy="292" r="0.45"/>
    <circle cx="150" cy="302" r="0.45"/>
    <circle cx="308" cy="280" r="0.45"/>
  </g>
</svg>